<svg width="72" height="53" viewBox="0 0 72 53" fill="none" xmlns="http://www.w3.org/2000/svg">
<path d="M26.188 0.145325H5.67522C4.22447 0.145325 2.83313 0.721635 1.80729 1.74748C0.78145 2.77332 0.205139 4.16465 0.205139 5.61541V27.4958C0.205139 28.9465 0.78145 30.3378 1.80729 31.3637C2.83313 32.3895 4.22447 32.9658 5.67522 32.9658H26.188V35.7009C26.188 38.6024 25.0354 41.3851 22.9837 43.4367C20.9321 45.4884 18.1494 46.6411 15.2479 46.6411C14.5225 46.6411 13.8268 46.9292 13.3139 47.4421C12.801 47.955 12.5128 48.6507 12.5128 49.3761C12.5128 50.1015 12.801 50.7971 13.3139 51.3101C13.8268 51.823 14.5225 52.1111 15.2479 52.1111C19.5988 52.1066 23.7701 50.3762 26.8467 47.2997C29.9232 44.2231 31.6536 40.0518 31.6581 35.7009V5.61541C31.6581 4.16465 31.0818 2.77332 30.056 1.74748C29.0301 0.721635 27.6388 0.145325 26.188 0.145325ZM26.188 27.4958H5.67522V5.61541H26.188V27.4958ZM65.8462 0.145325H45.3333C43.8826 0.145325 42.4913 0.721635 41.4654 1.74748C40.4396 2.77332 39.8633 4.16465 39.8633 5.61541V27.4958C39.8633 28.9465 40.4396 30.3378 41.4654 31.3637C42.4913 32.3895 43.8826 32.9658 45.3333 32.9658H65.8462V35.7009C65.8462 38.6024 64.6935 41.3851 62.6419 43.4367C60.5902 45.4884 57.8075 46.6411 54.906 46.6411C54.1806 46.6411 53.4849 46.9292 52.972 47.4421C52.4591 47.955 52.171 48.6507 52.171 49.3761C52.171 50.1015 52.4591 50.7971 52.972 51.3101C53.4849 51.823 54.1806 52.1111 54.906 52.1111C59.2569 52.1066 63.4283 50.3762 66.5048 47.2997C69.5813 44.2231 71.3117 40.0518 71.3163 35.7009V5.61541C71.3163 4.16465 70.7399 2.77332 69.7141 1.74748C68.6883 0.721635 67.2969 0.145325 65.8462 0.145325ZM65.8462 27.4958H45.3333V5.61541H65.8462V27.4958Z" fill="#171717"/>
</svg>
